<svg width="1290" height="1222" viewBox="0 0 1290 1222" fill="none" xmlns="http://www.w3.org/2000/svg" xmlns:xlink="http://www.w3.org/1999/xlink">
<rect width="1290" height="1222" rx="161" fill="#363636"/>
<path d="M776.717 184.411L463.728 101L425.597 249.551L586.858 290.065L456.578 781.792L735.409 855.67L773.54 707.119L647.232 675.344L776.717 184.411Z" fill="url(#pattern0_8_5)"/>
<circle cx="814.054" cy="495.812" r="102.476" fill="url(#pattern1_8_5)"/>
<rect x="311.205" y="404.457" width="182.71" height="182.71" fill="url(#pattern2_8_5)"/>
<path d="M142 726.979L292.934 693.615C503.447 1233.8 1152.46 876.324 960.221 448.148L1098.45 383.008C1174.71 510.905 1142.93 653.101 1139.75 712.68C1136.58 772.259 991.202 1157.54 602.746 1118.61C291.981 1087.47 166.096 844.549 142 726.979Z" fill="url(#pattern3_8_5)"/>
<defs>
<pattern id="pattern0_8_5" patternUnits="userSpaceOnUse" patternTransform="matrix(24.66 0 0 20.55 592.157 101)" preserveAspectRatio="none" viewBox="0 0 16.44 13.7" width="1" height="1">
<g id="pattern0_8_5_inner">
<ellipse cx="6" cy="5" rx="6" ry="5" transform="rotate(180 6 5)" fill="url(#paint0_linear_8_5)"/>
</g>
</pattern><pattern id="pattern1_8_5" patternUnits="userSpaceOnUse" patternTransform="matrix(24.66 0 0 20.55 805.054 393.335)" preserveAspectRatio="none" viewBox="0 0 16.44 13.7" width="1" height="1">
<g id="pattern1_8_5_inner">
<ellipse cx="6" cy="5" rx="6" ry="5" transform="rotate(180 6 5)" fill="url(#paint1_linear_8_5)"/>
</g>
</pattern><pattern id="pattern2_8_5" patternUnits="userSpaceOnUse" patternTransform="matrix(24.66 0 0 20.55 393.56 404.457)" preserveAspectRatio="none" viewBox="0 0 16.44 13.7" width="1" height="1">
<g id="pattern2_8_5_inner">
<ellipse cx="6" cy="5" rx="6" ry="5" transform="rotate(180 6 5)" fill="url(#paint2_linear_8_5)"/>
</g>
</pattern><pattern id="pattern3_8_5" patternUnits="userSpaceOnUse" patternTransform="matrix(24.66 0 0 20.55 649.353 383.008)" preserveAspectRatio="none" viewBox="0 0 16.44 13.7" width="1" height="1">
<g id="pattern3_8_5_inner">
<ellipse cx="6" cy="5" rx="6" ry="5" transform="rotate(180 6 5)" fill="url(#paint3_linear_8_5)"/>
</g>
</pattern><linearGradient id="paint0_linear_8_5" x1="6" y1="10" x2="6" y2="0" gradientUnits="userSpaceOnUse">
<stop stop-color="#97BDD3"/>
<stop offset="1" stop-color="#1A5C3E"/>
</linearGradient>
<linearGradient id="paint1_linear_8_5" x1="6" y1="10" x2="6" y2="0" gradientUnits="userSpaceOnUse">
<stop stop-color="#97BDD3"/>
<stop offset="1" stop-color="#1A5C3E"/>
</linearGradient>
<linearGradient id="paint2_linear_8_5" x1="6" y1="10" x2="6" y2="0" gradientUnits="userSpaceOnUse">
<stop stop-color="#97BDD3"/>
<stop offset="1" stop-color="#1A5C3E"/>
</linearGradient>
<linearGradient id="paint3_linear_8_5" x1="6" y1="10" x2="6" y2="0" gradientUnits="userSpaceOnUse">
<stop stop-color="#97BDD3"/>
<stop offset="1" stop-color="#1A5C3E"/>
</linearGradient>
</defs>
</svg>
