<?xml version="1.0" encoding="UTF-8"?>
<svg id="Ebene_1" xmlns="http://www.w3.org/2000/svg" version="1.1" xmlns:xlink="http://www.w3.org/1999/xlink" viewBox="0 0 595.28 841.89">
  <!-- Generator: Adobe Illustrator 30.4.0, SVG Export Plug-In . SVG Version: 2.1.4 Build 226)  -->
  <defs>
    <style>
      .st0 {
        fill: url(#Ziegel_13);
      }

      .st1 {
        fill: url(#Ziegel_1);
      }

      .st2 {
        fill: url(#Ziegel_12);
      }

      .st3 {
        fill: url(#Ziegel_11);
      }
    </style>
    <linearGradient id="Ziegel_1" data-name="Ziegel 1" x1="212.6" y1="363.83" x2="421.39" y2="363.83" gradientUnits="userSpaceOnUse">
      <stop offset="0" stop-color="#e58a76"/>
      <stop offset=".51" stop-color="#aa3c17"/>
      <stop offset="1" stop-color="#611c01"/>
    </linearGradient>
    <linearGradient id="Ziegel_11" data-name="Ziegel 1" x1="140.42" y1="353.37" x2="231.81" y2="353.37" xlink:href="#Ziegel_1"/>
    <linearGradient id="Ziegel_12" data-name="Ziegel 1" x1="336.82" y1="353.64" x2="439.69" y2="353.64" xlink:href="#Ziegel_1"/>
    <linearGradient id="Ziegel_13" data-name="Ziegel 1" x1="55.48" y1="483.87" x2="557.5" y2="483.87" xlink:href="#Ziegel_1"/>
  </defs>
  <g id="Generatives_Objekt">
    <g>
      <path class="st1" d="M231.3,425.86c.24-.88.82-1.25.38-2.33s2.21-1.35.71-2.45l61.92-230.51c.98-1.62.76-7.6,3.53-7.44l71.4,19.26-64.12,238.69,116.26,31.22-19.5,72.24-189.3-50.63,18.7-68.05Z"/>
      <polygon class="st3" points="140.42 399.17 140.42 307.65 231.81 307.56 231.72 399.16 140.42 399.17"/>
      <path class="st2" d="M439.17,346.99c2.8,19.24-5.79,37.08-21.19,48.27-17.1,12.43-39.76,13.21-57.85,1.36-16.97-11.11-26.76-31.82-22.18-53.57,3.93-18.71,19.41-35.13,39.61-39.65,28.44-6.37,57.26,13.77,61.61,43.6Z"/>
    </g>
    <path class="st0" d="M547.47,343.37c1.85,6.71,3.5,13.53,4.92,20.44,1.41,6.92,2.52,13.95,3.39,21.05.88,7.1,1.37,14.31,1.61,21.55.25,7.24.1,14.55-.38,21.87-.2,3.66-.6,7.31-.97,10.97-.48,3.65-.92,7.31-1.57,10.94-.58,3.73-1.3,7.03-1.98,10.48-.7,3.42-1.53,6.84-2.33,10.25-3.41,13.64-7.84,27.16-13.4,40.35-5.62,13.16-12.39,25.95-20.26,38.09-.99,1.51-2.02,3-3.04,4.5-1.03,1.49-2.01,3.01-3.1,4.45-2.15,2.91-4.25,5.86-6.55,8.66l-3.39,4.24-3.53,4.12c-2.33,2.8-4.8,5.33-7.23,7.94-9.78,10.35-20.41,19.95-31.78,28.62-11.42,8.6-23.57,16.27-36.28,22.87-12.71,6.6-25.97,12.17-39.61,16.54-13.66,4.32-27.66,7.49-41.81,9.5-3.54.47-7.07,1.04-10.63,1.29l-5.33.47c-1.78.14-3.54.35-5.37.39-3.63.13-7.25.33-10.88.37-3.62-.03-7.25-.04-10.87-.13-14.47-.49-28.83-2.37-42.86-5.41-28.07-6.1-54.77-16.98-79.02-31.54l-4.55-2.73-4.44-2.9-4.43-2.91c-1.46-.99-2.88-2.04-4.32-3.06l-4.31-3.09-1.1-.8-1.22-.93c-.8-.63-1.64-1.25-2.41-1.88-3.17-2.53-6.11-5.11-8.92-7.68-2.78-2.56-5.36-5.1-7.81-7.56-2.43-2.45-4.69-4.82-6.85-7.08l-6.09-6.36c-1.92-1.97-3.75-3.8-5.53-5.51l-.13-.13c-1.64-1.58-3.21-3.44-4.49-5.22-7-9.87-14.42-20.59-21.26-32.68-1.7-3.03-3.37-6.12-4.97-9.29-.8-1.6-1.58-3.16-2.36-4.83l-1.17-2.52-.94-2.09-7.23-16.16-15.18-33.93,67.86-30.36,15.18,33.93,7.14,15.96.87,1.92.69,1.47c.46.98.99,2.05,1.5,3.07,1.04,2.06,2.16,4.14,3.33,6.22,4.71,8.34,10.6,16.99,17.17,26.24l-4.62-5.35c2.62,2.52,5.11,5.01,7.45,7.42l6.59,6.87c2.06,2.16,4.02,4.2,5.89,6.09,1.86,1.86,3.64,3.61,5.35,5.19,1.7,1.55,3.36,3,4.96,4.28.4.34.8.62,1.2.93l.6.46.76.55,3.15,2.25c1.05.74,2.08,1.52,3.15,2.24l3.23,2.11,3.23,2.12,3.31,1.97c17.63,10.59,36.81,18.34,56.51,22.62,9.85,2.13,19.82,3.44,29.77,3.77l7.46.09c2.48-.03,4.96-.19,7.44-.26,1.23,0,2.51-.18,3.77-.28l3.8-.33c2.54-.15,5.04-.59,7.55-.92,10.04-1.43,19.94-3.66,29.59-6.7,9.63-3.09,18.98-7.03,27.95-11.69,8.97-4.66,17.56-10.07,25.67-16.16,8.06-6.16,15.62-12.99,22.62-20.39,1.72-1.87,3.55-3.69,5.11-5.6l2.44-2.83,2.32-2.92c1.59-1.91,3.01-3.96,4.51-5.95.76-.98,1.42-2.05,2.13-3.07.7-1.03,1.42-2.05,2.1-3.09,5.41-8.38,10.13-17.25,14.12-26.56,3.93-9.34,7.14-19.09,9.67-29.16.58-2.54,1.2-5.06,1.73-7.62.49-2.54,1.08-5.22,1.42-7.53.44-2.38.71-4.8,1.04-7.2.23-2.42.51-4.84.64-7.29,1.3-19.51-1.3-39.8-6.96-60.06-2.6-9.02-5.9-17.92-9.72-26.47,0,0,19.35-9.42,28.04-13.65-.31.19,36.92-18.12,38.4-18.83,6.15,12.54,11.08,25.55,14.89,38.96Z"/>
  </g>
</svg>