<svg width="4216" height="1211" viewBox="0 0 4216 1211" fill="none" xmlns="http://www.w3.org/2000/svg">
<path d="M1492.67 231.891L1219.15 159L1185.83 288.816L1326.75 324.22L1212.9 753.932L1456.57 818.493L1489.89 688.677L1379.51 660.909L1492.67 231.891Z" fill="#FFA931"/>
<circle cx="1525.3" cy="504.019" r="89.5522" fill="#FFA931"/>
<rect x="1085.87" y="424.186" width="159.667" height="159.667" fill="#FFA931"/>
<path d="M938 706.032L1069.9 676.876C1253.86 1148.93 1821.03 836.542 1653.03 462.367L1773.82 405.442C1840.46 517.209 1812.7 641.471 1809.92 693.537C1807.14 745.602 1680.1 1082.29 1340.64 1048.27C1069.07 1021.06 959.058 808.774 938 706.032Z" fill="#FFA931"/>
<path d="M32 880V364.8H431.2V490.4H204V558.4H400.8V687.2H204V880H32ZM463.25 880V364.8H864.05V492H635.25V557.6H834.45V688H635.25V752.8H864.05V880H463.25Z" fill="#D7D6BE"/>
<path d="M1914 880V364.8H2086V880H1914ZM2137.94 880L2328.34 619.2L2145.14 364.8H2324.34L2418.74 500L2513.94 364.8H2693.14L2509.94 619.2L2700.34 880H2518.74L2418.74 740L2319.54 880H2137.94ZM2752.28 880V364.8H3153.08V492H2924.28V557.6H3123.48V688H2924.28V752.8H3153.08V880H2752.28ZM3196.81 880V364.8H3368.81V748.8H3589.61V880H3196.81Z" fill="#D7D6BE"/>
</svg>
